<svg width="16" height="16" viewBox="0 0 16 16" fill="none" xmlns="http://www.w3.org/2000/svg">
<g clip-path="url(#clip0_1_1677)">
<path d="M2.57555 16C2.44781 15.9356 2.32806 15.8564 2.21876 15.764C2.12243 15.6597 2.06127 15.5277 2.0439 15.3868C2.02654 15.2459 2.05384 15.103 2.12195 14.9784L1.48195 14.6192C1.40195 14.576 1.32675 14.5352 1.25075 14.4888C1.20659 14.4702 1.16727 14.4417 1.13581 14.4055C1.10434 14.3694 1.08156 14.3265 1.06921 14.2802C1.05686 14.2338 1.05526 14.1853 1.06454 14.1383C1.07382 14.0913 1.09373 14.047 1.12275 14.0088C1.31955 13.6544 1.52275 13.3024 1.72115 12.9496L3.32115 10.1264C3.48115 9.83681 3.61395 9.80081 3.90195 9.96241L4.99555 10.5744C5.02835 10.52 5.05475 10.476 5.08035 10.4312C5.28195 10.0736 5.48035 9.71121 5.68595 9.35761C5.78355 9.18801 5.88755 9.04481 5.73155 8.83281C5.68163 8.7405 5.65691 8.63667 5.65985 8.53176C5.6628 8.42686 5.69333 8.32458 5.74835 8.23521C6.17709 7.24024 6.74459 6.31101 7.43395 5.47521C7.78355 5.04241 8.14835 4.61921 8.53795 4.22241C8.83926 3.89369 9.25669 3.69516 9.70183 3.66888C10.147 3.6426 10.5849 3.79063 10.9228 4.08161C11.3228 4.39441 11.69 4.73841 12.0876 5.04961C12.658 5.54146 13.33 5.90123 14.0556 6.10321C14.1916 6.13521 14.3308 6.15361 14.4676 6.18321C14.6425 6.21676 14.7979 6.31628 14.9016 6.46118C15.0052 6.60608 15.0492 6.78528 15.0245 6.96171C14.9997 7.13814 14.9081 7.2983 14.7685 7.40907C14.629 7.51983 14.4522 7.57273 14.2748 7.55681C13.4942 7.50207 12.7357 7.27357 12.0548 6.88801C11.8948 6.79201 11.7444 6.68322 11.5644 6.56802C11.5804 6.78002 11.5916 6.97361 11.6092 7.16721C11.6564 7.70081 11.7012 8.23441 11.7548 8.76721C11.7818 8.94811 11.7721 9.1326 11.7262 9.30964C11.6802 9.48669 11.5991 9.65266 11.4876 9.79762C11.6476 10.0752 11.8172 10.3456 11.9724 10.6216C12.714 11.9352 13.378 13.2872 13.9892 14.6656C14.0602 14.7852 14.102 14.9199 14.1113 15.0587C14.1205 15.1975 14.0969 15.3365 14.0424 15.4645C13.9878 15.5924 13.9039 15.7057 13.7973 15.7952C13.6908 15.8846 13.5646 15.9477 13.4292 15.9792C13.4153 15.9864 13.4024 15.9953 13.3908 16.0056H13.0468C12.8741 15.9499 12.717 15.8545 12.588 15.7269C12.4591 15.5993 12.3619 15.4432 12.3044 15.2712C11.6935 13.8662 11.0022 12.4975 10.234 11.172C10.2068 11.1264 10.1764 11.0816 10.1396 11.0224C10.0996 11.0928 10.07 11.1408 10.0436 11.1912C9.31315 12.5728 8.57955 13.9528 7.85555 15.3384C7.78914 15.4988 7.68739 15.6422 7.55788 15.7579C7.42837 15.8735 7.27444 15.9585 7.10755 16.0064H6.76355C6.62072 15.9396 6.48463 15.8592 6.35715 15.7664C6.19965 15.6227 6.09969 15.4267 6.07586 15.2148C6.05202 15.0029 6.10593 14.7895 6.22755 14.6144C7.06275 13.0981 7.89902 11.5824 8.73635 10.0672C8.75946 10.0298 8.77061 9.9863 8.76832 9.94242C8.76603 9.89853 8.75042 9.85639 8.72355 9.82161C8.61259 9.64185 8.53432 9.44386 8.49235 9.23682C8.41715 8.64402 8.37955 8.04561 8.32675 7.45041C8.30595 7.21681 8.28195 6.98242 8.25875 6.74882C7.99878 7.0789 7.7617 7.42637 7.54915 7.78881C7.36195 8.10881 7.20515 8.45281 7.04515 8.79041C7.00349 8.90326 6.93666 9.00514 6.84975 9.0883C6.76284 9.17147 6.65813 9.23375 6.54355 9.27042C6.4884 9.29597 6.44376 9.33976 6.41715 9.39441C5.38782 11.1955 4.35929 12.9971 3.33155 14.7992C3.31057 14.8307 3.29938 14.8678 3.29938 14.9056C3.29938 14.9435 3.31057 14.9805 3.33155 15.012C3.37764 15.097 3.40511 15.1909 3.41213 15.2874C3.41915 15.3838 3.40556 15.4807 3.37227 15.5715C3.33897 15.6623 3.28673 15.745 3.21902 15.814C3.15131 15.8831 3.06968 15.9369 2.97955 15.972C2.94755 15.9856 2.91715 16.0024 2.88595 16.0176L2.57555 16ZM2.95555 15.3304C2.95487 15.2989 2.94799 15.2678 2.9353 15.239C2.9226 15.2101 2.90435 15.184 2.88158 15.1622C2.85881 15.1404 2.83197 15.1233 2.80259 15.1119C2.77322 15.1005 2.74187 15.0949 2.71035 15.0956C2.67884 15.0963 2.64776 15.1032 2.61891 15.1159C2.59005 15.1286 2.56398 15.1468 2.54217 15.1696C2.52037 15.1924 2.50326 15.2192 2.49183 15.2486C2.4804 15.278 2.47487 15.3093 2.47555 15.3408C2.47624 15.3723 2.48312 15.4034 2.49581 15.4323C2.50851 15.4611 2.52676 15.4872 2.54953 15.509C2.5723 15.5308 2.59914 15.5479 2.62852 15.5593C2.65789 15.5708 2.68924 15.5763 2.72075 15.5756C2.75227 15.5749 2.78335 15.568 2.8122 15.5554C2.84106 15.5427 2.86713 15.5244 2.88894 15.5016C2.91074 15.4789 2.92785 15.452 2.93928 15.4227C2.95071 15.3933 2.95624 15.3619 2.95555 15.3304Z" fill="#121212"/>
<path d="M8.12915 1.78962C8.12994 1.43418 8.23614 1.08696 8.4343 0.791883C8.63247 0.496808 8.9137 0.267135 9.24241 0.131919C9.57113 -0.00329654 9.93257 -0.0379802 10.281 0.0322559C10.6294 0.102492 10.9492 0.274492 11.1999 0.526498C11.4505 0.778503 11.6208 1.09919 11.6892 1.44799C11.7576 1.7968 11.7209 2.15804 11.584 2.48603C11.447 2.81402 11.2158 3.09402 10.9197 3.2906C10.6236 3.48719 10.2758 3.59152 9.92035 3.59042C9.68429 3.59053 9.45053 3.54395 9.23254 3.45337C9.01454 3.3628 8.81661 3.23 8.65014 3.06263C8.48366 2.89527 8.35193 2.69663 8.26252 2.47815C8.17311 2.25968 8.12778 2.02568 8.12915 1.78962Z" fill="#121212"/>
</g>
<defs>
<clipPath id="clip0_1_1677">
<rect width="16" height="16" fill="white"/>
</clipPath>
</defs>
</svg>
