<svg width="20" height="21" viewBox="0 0 20 21" fill="none" xmlns="http://www.w3.org/2000/svg">
<path d="M19.2526 7.75599L18.2383 7.6926C17.879 6.84733 17.8367 6.69932 17.4775 5.85402L18.1538 5.09322C18.4497 4.75505 18.4286 4.24795 18.1115 3.93083L16.1249 1.94425C15.808 1.62731 15.3007 1.60608 14.9625 1.90194L14.2017 2.57829C13.3565 2.21904 13.2085 2.17671 12.3631 1.81748L12.2998 0.803111C12.2787 0.359232 11.8982 0 11.4545 0H8.6014C8.15752 0 7.77719 0.33817 7.75613 0.803111L7.6926 1.79639C6.84733 2.15564 6.69932 2.19796 5.85402 2.55719L5.09321 1.88084C4.75504 1.58498 4.24795 1.60606 3.93084 1.92315L1.94425 3.90974C1.62731 4.22668 1.60608 4.73395 1.90194 5.07212L2.57829 5.83293C2.21904 6.67819 2.17671 6.8262 1.81748 7.6715L0.803111 7.73489C0.359232 7.75597 0 8.13647 0 8.58016V11.3909C0 11.8348 0.33817 12.2151 0.803111 12.2362L1.77533 12.342C2.13458 13.1873 2.1769 13.3353 2.53613 14.1806L1.88103 14.9414C1.58517 15.2796 1.60625 15.7867 1.92334 16.1038L3.90993 18.0904C4.22687 18.4073 4.73413 18.4285 5.07231 18.1327L5.83311 17.4563C6.67838 17.8156 6.82639 17.8579 7.67169 18.2171L7.73508 19.2315C7.75616 19.6754 8.13665 20.0346 8.58034 20.0346H11.3911C11.835 20.0346 12.2153 19.6964 12.2364 19.2315L12.2998 18.2171C13.145 17.8579 13.293 17.8156 14.1383 17.4563L14.8991 18.1327C15.2373 18.4285 15.7444 18.4075 16.0615 18.0904L18.0481 16.1038C18.365 15.7868 18.3863 15.2796 18.0904 14.9414L17.4141 14.1806C17.7733 13.3353 17.8156 13.1873 18.1749 12.342L19.1892 12.2786C19.6331 12.2576 19.9924 11.8771 19.9924 11.4334V8.60137C20.0557 8.15749 19.7176 7.77716 19.2526 7.75595L19.2526 7.75599ZM10.0173 15.0682C7.2276 15.0682 4.96639 12.8068 4.96639 10.0173C4.96639 7.22757 7.22775 4.96637 10.0173 4.96637C12.807 4.96637 15.0682 7.22772 15.0682 10.0173C15.0682 12.807 12.807 15.0682 10.0173 15.0682Z" fill="#E1E1E1"/>
<path d="M12.8913 10.035C12.8913 11.6224 11.6045 12.9092 10.0171 12.9092C8.42978 12.9092 7.14297 11.6224 7.14297 10.035C7.14297 8.44766 8.42978 7.16086 10.0171 7.16086C11.6045 7.16086 12.8913 8.44766 12.8913 10.035Z" fill="#E1E1E1"/>
</svg>
