<svg width="54" height="297" viewBox="0 0 54 297" fill="none" xmlns="http://www.w3.org/2000/svg">
<circle cx="26.7613" cy="270.239" r="24.7547" fill="white" stroke="#FFF1F1" stroke-width="4"/>
<path d="M27.3269 3.78015L32.5084 0.806866C32.83 0.62228 32.83 0.32301 32.5084 0.138439C32.1867 -0.0461464 31.6653 -0.0461464 31.3436 0.138439L26.1627 3.11204L20.9818 0.138439C20.6601 -0.0461464 20.1387 -0.0461464 19.817 0.138439C19.4954 0.323025 19.4954 0.622295 19.817 0.806866L24.9985 3.78015L19.817 6.75345C19.4954 6.93804 19.4954 7.23731 19.817 7.42188C20.1387 7.60645 20.6602 7.60647 20.9818 7.42188L26.1627 4.44827L31.3436 7.42188C31.6653 7.60647 32.1867 7.60647 32.5083 7.42188C32.83 7.2373 32.83 6.93803 32.5083 6.75345L27.3269 3.78015Z" fill="#FF0000"/>
</svg>
