<svg width="17" height="11" viewBox="0 0 17 11" fill="none" xmlns="http://www.w3.org/2000/svg">
<path d="M16.6853 9.22757L13.4327 7.36095C14.6455 6.58054 15.399 5.54707 15.399 4.41868C15.399 1.9826 11.9443 0 7.6995 0C3.45467 0 0 1.9826 0 4.41868C0 6.85475 3.45467 8.83735 7.6995 8.83735C9.20638 8.83735 10.6029 8.58424 11.7789 8.16243L15.1601 10.1028C15.3622 10.2189 15.6378 10.2821 15.9136 10.2821C16.1891 10.2821 16.4649 10.2189 16.667 10.1028C17.108 9.86031 17.108 9.47006 16.6853 9.22755L16.6853 9.22757ZM2.14995 4.4187C2.14995 2.66808 4.63076 1.23387 7.69946 1.23387C10.7682 1.23387 13.2306 2.6681 13.2306 4.4187C13.2306 6.16931 10.7498 7.60352 7.69946 7.60352C4.64913 7.60352 2.14995 6.1798 2.14995 4.4187Z" fill="#E1E1E1"/>
</svg>
