<svg width="24" height="14" viewBox="0 0 24 14" fill="none" xmlns="http://www.w3.org/2000/svg">
<g clip-path="url(#clip0_1_3786)">
<path d="M22.3816 7.136C22.3816 6.6324 22.3105 6.2649 22.1566 5.88379H12.1505V8.15681H18.0238C17.9055 8.72169 17.266 9.57239 15.845 10.144L15.8251 10.2201L18.9889 11.6287L19.208 11.6413C21.2211 10.5728 22.3816 9.00071 22.3816 7.136Z" fill="#4285F4"/>
<path d="M12.1498 13.1251C15.0273 13.1251 17.4429 12.5807 19.2073 11.6415L15.8443 10.1443C14.9444 10.505 13.7365 10.7568 12.1498 10.7568C9.33156 10.7568 6.93959 9.68832 6.08692 8.2115L5.96194 8.2176L2.67224 9.68081L2.62922 9.74954C4.38174 11.7504 7.98157 13.1251 12.1498 13.1251Z" fill="#34A853"/>
<path d="M6.08763 8.21129C5.86265 7.83019 5.73244 7.42182 5.73244 6.9999C5.73244 6.57793 5.86265 6.16962 6.07579 5.78851L6.06983 5.70734L2.7389 4.22065L2.62992 4.25044C1.90762 5.08072 1.49316 6.0131 1.49316 6.9999C1.49316 7.9867 1.90762 8.91903 2.62992 9.74932L6.08763 8.21129Z" fill="#FBBC05"/>
<path d="M12.1499 3.24331C14.1511 3.24331 15.501 3.74011 16.2707 4.15528L19.2785 2.4675C17.4312 1.4807 15.0273 0.875 12.1499 0.875C7.9816 0.875 4.38175 2.24971 2.62922 4.25052L6.0751 5.78859C6.93962 4.31179 9.3316 3.24331 12.1499 3.24331Z" fill="#EB4335"/>
</g>
<defs>
<clipPath id="clip0_1_3786">
<rect width="23.4862" height="13.7734" fill="white" transform="scale(1.01645)"/>
</clipPath>
</defs>
</svg>
