<svg width="17" height="25" viewBox="0 0 17 25" fill="none" xmlns="http://www.w3.org/2000/svg">
<g clip-path="url(#clip0_1_3912)">
<path d="M8.15494 24.9998C7.57021 24.7988 7.34571 24.3863 7.36659 23.7807C7.39009 23.0237 7.36659 22.2667 7.37704 21.5097C7.37965 21.3113 7.317 21.2669 7.13166 21.2695C6.57825 21.2799 6.02223 21.2852 5.46882 21.2695C4.64131 21.246 4.17144 20.4472 4.58649 19.7816C4.77706 19.4735 5.0642 19.3247 5.42444 19.3221C5.99612 19.3221 6.56519 19.3117 7.13688 19.3247C7.33527 19.33 7.37965 19.2647 7.37704 19.0768C7.36659 18.3119 7.36659 17.547 7.37704 16.7822C7.37704 16.5942 7.33527 16.5264 7.13427 16.4898C3.72506 15.8868 1.41744 13.9447 0.39938 10.6529C-0.456838 7.89632 0.0782982 5.29634 1.9082 3.0566C3.79032 0.756819 6.2911 -0.240361 9.25393 0.0493955C12.577 0.373088 15.4145 2.73552 16.3177 5.92284C17.1061 8.70033 16.6023 11.269 14.7985 13.527C13.4645 15.1977 11.6921 16.174 9.56979 16.495C9.39489 16.5212 9.3218 16.5629 9.32441 16.7587C9.33746 17.5392 9.33485 18.3223 9.32441 19.1029C9.32441 19.2699 9.36618 19.3274 9.54107 19.3247C10.1441 19.3169 10.7471 19.3143 11.3501 19.33C11.7913 19.343 12.1306 19.6432 12.2376 20.0739C12.3368 20.4759 12.1541 20.9093 11.7939 21.1259C11.5981 21.2434 11.384 21.2747 11.1595 21.2747C10.6296 21.2747 10.0997 21.2826 9.56979 21.2721C9.38445 21.2669 9.31919 21.3139 9.32441 21.5123C9.33746 22.2693 9.31136 23.0263 9.33485 23.7833C9.35312 24.389 9.12863 24.804 8.5465 25.0024H8.15494V24.9998ZM8.3194 14.639C11.7991 14.6756 14.6627 11.8537 14.7123 8.33748C14.7619 4.85518 11.9244 1.98372 8.39249 1.94195C4.89975 1.90018 2.02306 4.73249 1.98652 8.25134C1.94997 11.7362 4.7875 14.5999 8.31679 14.6364L8.3194 14.639Z" fill="black"/>
</g>
<defs>
<clipPath id="clip0_1_3912">
<rect width="16.678" height="25" fill="white"/>
</clipPath>
</defs>
</svg>
