<svg width="25" height="25" viewBox="0 0 25 25" fill="none" xmlns="http://www.w3.org/2000/svg">
<g clip-path="url(#clip0_1_3916)">
<path d="M0 14.9933C0.0344828 14.7519 0.0689655 14.5105 0.103448 14.2761C0.531035 11.5726 1.88276 9.43468 4.12414 7.87606C5.31035 7.05537 6.63448 6.54503 8.06897 6.35882C10.6069 6.02089 12.9103 6.61399 14.9724 8.13123C15.1586 8.26916 15.2621 8.28296 15.4414 8.10365C17.3517 6.17951 19.269 4.26916 21.1862 2.35192C21.2552 2.28296 21.3172 2.21399 21.4138 2.11054C21.2897 2.11054 21.2 2.09675 21.1172 2.09675C19.6828 2.09675 18.2552 2.09675 16.8207 2.09675C16.4828 2.09675 16.1655 2.03468 15.931 1.77951C15.6414 1.46916 15.5448 1.10365 15.6966 0.69675C15.8483 0.29675 16.1517 0.0691642 16.5724 0.0139918C16.6621 0.00019868 16.7517 0.00709523 16.8414 0.00709523C19.1517 0.00709523 21.4621 0.00709523 23.7724 0.00709523C24.5931 0.00709523 25 0.413992 25 1.23468C25 3.57261 25 5.90365 25 8.24158C25 8.68296 24.8414 9.03468 24.4414 9.24847C23.8138 9.5864 23.0483 9.20709 22.9379 8.49675C22.9172 8.37951 22.9103 8.25537 22.9103 8.13123C22.9103 6.72434 22.9103 5.31744 22.9103 3.91054C22.9103 3.82089 22.9103 3.73123 22.9103 3.64847C22.8138 3.62089 22.7862 3.69675 22.7448 3.73813C20.7724 5.70365 18.8069 7.67606 16.8345 9.63468C16.6897 9.77951 16.7448 9.85537 16.8345 9.97261C17.7862 11.2209 18.4 12.614 18.6207 14.1657C19.0414 17.0968 18.2759 19.6967 16.3034 21.9105C14.9172 23.4692 13.1724 24.4209 11.131 24.8347C10.7586 24.9105 10.3793 24.9519 10 25.0071H8.73103C8.51724 24.9726 8.30345 24.9381 8.08276 24.9105C6.64138 24.7174 5.30345 24.214 4.11724 23.3864C1.88276 21.8209 0.531035 19.683 0.103448 16.9795C0.0689655 16.7381 0.0344828 16.5036 0 16.2623C0 15.8416 0 15.414 0 14.9933ZM2.08966 15.6278C2.08966 19.6416 5.33103 22.8967 9.36552 22.9174C13.3724 22.9381 16.6621 19.6554 16.6621 15.6278C16.6621 11.6071 13.4345 8.36572 9.3931 8.34503C5.38621 8.32434 2.09655 11.6071 2.08966 15.6278Z" fill="white"/>
</g>
<defs>
<clipPath id="clip0_1_3916">
<rect width="25" height="25" fill="white"/>
</clipPath>
</defs>
</svg>
