<svg width="25" height="26" viewBox="0 0 25 26" fill="none" xmlns="http://www.w3.org/2000/svg">
<g clip-path="url(#clip0_1_3906)">
<path d="M0 16.0717C0.0913149 15.6456 0.121753 15.2093 0.223214 14.7832C1.01461 11.4654 3.7642 8.9593 7.13271 8.49258C9.375 8.1882 11.4042 8.70565 13.2305 10.0449C13.3827 10.1565 13.4639 10.1667 13.6059 10.0246C15.1989 8.42156 16.8019 6.81847 18.405 5.22553C18.5369 5.09363 18.5369 5.00232 18.4659 4.82983C17.918 3.54128 18.0601 2.3136 18.9631 1.23811C19.8661 0.162626 21.0633 -0.233072 22.433 0.122042C23.7926 0.477156 24.655 1.40045 24.929 2.78032C25.1928 4.11961 24.7565 5.26612 23.6709 6.10824C22.6055 6.94022 21.3981 7.06198 20.1603 6.52423C19.9878 6.45321 19.9067 6.4735 19.7849 6.59526C18.1818 8.20849 16.5787 9.81157 14.9655 11.4147C14.8438 11.5364 14.8336 11.6074 14.9351 11.7495C18.5674 16.6703 15.9192 23.6001 9.93304 24.8481C9.58807 24.9191 9.23295 24.9597 8.87784 25.0104H7.71104C7.53856 24.9394 7.34578 24.9496 7.16315 24.9293C3.81494 24.4828 1.00446 21.9362 0.23336 18.659C0.131899 18.2125 0.0811688 17.7458 0 17.2994V16.0819L0 16.0717ZM1.94805 16.7008C1.94805 20.2012 4.78896 23.0522 8.28937 23.0624C11.7796 23.0624 14.6307 20.2316 14.6408 16.7414C14.651 13.241 11.8101 10.3798 8.30966 10.3696C4.80925 10.3696 1.94805 13.2105 1.94805 16.7109V16.7008ZM21.5808 1.95849C20.7792 1.95849 20.1197 2.61798 20.1197 3.41953C20.1197 4.22107 20.7691 4.88056 21.5706 4.89071C22.3823 4.89071 23.0519 4.23121 23.0418 3.41953C23.0418 2.61798 22.3823 1.95849 21.5706 1.96863L21.5808 1.95849Z" fill="black"/>
</g>
<defs>
<clipPath id="clip0_1_3906">
<rect width="25" height="25.0101" fill="white"/>
</clipPath>
</defs>
</svg>
