<svg width="13" height="20" viewBox="0 0 13 20" fill="none" xmlns="http://www.w3.org/2000/svg">
<path d="M0.225597 5.05188C0.836143 2.65804 2.78492 0.696622 5.09073 0.155307C7.39636 -0.386057 9.95681 0.517045 11.4818 2.40948C13.007 4.3019 13.4296 7.09995 12.5369 9.39391C11.4081 12.2943 9.49172 14.8523 7.07196 16.6887C6.87779 16.836 6.66714 16.9839 6.42793 17.0004C6.09492 17.0233 5.80093 16.7893 5.54466 16.5649C3.8937 15.1192 2.3204 13.5183 1.25433 11.559C0.188271 9.59969 -0.329943 7.23063 0.225785 5.0516M6.31951 9.42776C6.68843 9.45139 7.06192 9.38914 7.40574 9.2466C7.85214 9.0616 8.24634 8.7404 8.5277 8.33256C9.1811 7.38527 9.13623 5.9754 8.42402 5.07596C7.71182 4.17672 6.39849 3.87147 5.39062 4.37132C4.38298 4.87118 3.77445 6.12928 3.98529 7.27732C4.19612 8.42536 5.20689 9.35627 6.31947 9.42758L6.31951 9.42776ZM9.15213 18.0789C9.47011 18.2083 9.70148 18.5445 9.7185 18.9018C9.73552 19.2591 9.53715 19.6178 9.23292 19.7798C8.9849 19.9118 8.69511 19.9148 8.41708 19.9152C7.13043 19.9164 5.84365 19.9175 4.55704 19.9187C4.25462 19.9189 3.93628 19.915 3.67415 19.7567C3.20245 19.4718 3.1217 18.6777 3.52541 18.2948C3.84175 17.9947 4.31143 17.9797 4.73801 17.9813C5.99479 17.9855 7.25137 17.9895 8.5081 17.9937C8.7259 17.9945 8.94919 17.9962 9.15213 18.0788L9.15213 18.0789Z" fill="#775CFF"/>
</svg>
