<svg width="20" height="13" viewBox="0 0 20 13" fill="none" xmlns="http://www.w3.org/2000/svg">
<path d="M19.6297 10.8559L15.8031 8.65992C17.23 7.74179 18.1164 6.52595 18.1164 5.19843C18.1164 2.33247 14.0521 0 9.05821 0C4.0643 0 0 2.33247 0 5.19843C0 8.06439 4.0643 10.3969 9.05821 10.3969C10.831 10.3969 12.474 10.0991 13.8575 9.60283L17.8354 11.8857C18.0732 12.0222 18.3974 12.0966 18.7218 12.0966C19.046 12.0966 19.3704 12.0221 19.6082 11.8857C20.127 11.6003 20.127 11.1412 19.6297 10.8559L19.6297 10.8559ZM2.52934 5.19845C2.52934 3.13891 5.44793 1.45161 9.05817 1.45161C12.6684 1.45161 15.5654 3.13893 15.5654 5.19845C15.5654 7.258 12.6468 8.94529 9.05817 8.94529C5.46955 8.94529 2.52934 7.27034 2.52934 5.19845Z" fill="#775CFF"/>
</svg>
