<svg width="100" height="107" viewBox="0 0 100 107" fill="none" xmlns="http://www.w3.org/2000/svg">
<path d="M14.8521 106.536C12.9468 106.062 11.0075 105.705 9.25051 104.755C3.58379 101.684 0.241551 96.9644 0.134828 90.5246C-0.0629992 78.7513 -0.0187484 66.9728 0.111401 55.1994C0.205109 46.6668 7.39718 39.5554 15.9454 39.2275C17.4708 39.1702 19.0013 39.152 20.5241 39.2171C21.4325 39.2561 21.7579 39.0505 21.7423 38.0535C21.6798 33.8289 21.7136 29.6042 21.7162 25.377C21.7162 15.6366 25.8654 8.1087 34.3642 3.41031C43.3575 -1.56141 52.4315 -1.04341 61.0266 4.61289C66.2092 8.02281 69.4837 12.9112 70.9987 18.9398C71.5089 20.9649 71.6859 23.0343 71.6911 25.1167C71.6989 29.4454 71.7275 33.7768 71.6676 38.103C71.6546 39.0635 71.954 39.2275 72.8286 39.2171C75.4967 39.1832 78.1725 39.0531 80.8094 39.6622C82.923 40.1515 84.2531 41.7055 84.2661 43.7515C84.2791 45.7558 82.9464 47.4061 80.9395 47.8173C80.5048 47.9058 80.0206 47.9657 79.6016 47.8642C77.9252 47.4581 76.2281 47.505 74.5309 47.5076C55.4796 47.5076 36.4283 47.5128 17.377 47.505C13.7277 47.505 10.9398 48.9392 9.2427 52.2372C8.61277 53.4606 8.39672 54.7908 8.39672 56.1573C8.39672 67.2747 8.38371 78.3921 8.40193 89.5095C8.40974 94.6894 11.9836 98.2113 17.2131 98.2139C34.0778 98.2243 50.9426 98.2191 67.81 98.2139C68.5753 98.2139 69.338 98.2243 70.0642 98.5028C71.6052 99.0911 72.7193 100.614 72.7219 102.267C72.7219 104.011 71.9227 105.31 70.3505 106.111C70.046 106.265 69.7284 106.392 69.4161 106.53H14.8521V106.536ZM46.7284 39.1988C51.9292 39.1988 57.1325 39.1832 62.3333 39.2171C63.1246 39.2223 63.3901 39.0505 63.3797 38.2045C63.3355 33.7404 63.3563 29.2736 63.3589 24.8095C63.3589 23.698 63.2574 22.597 63.0361 21.5089C61.6331 14.6344 56.1096 9.63146 48.7821 8.59286C38.9819 7.20547 30.1239 14.788 30.0484 24.6611C30.012 29.1955 30.064 33.73 30.0198 38.2644C30.012 39.0765 30.2723 39.2197 31.0167 39.2171C36.2539 39.1858 41.4912 39.2014 46.7258 39.2014L46.7284 39.1988Z" fill="#775CFF"/>
<path d="M84.4041 106.536C84.1828 106.445 83.9642 106.351 83.7429 106.26C81.8454 105.492 80.7365 103.503 81.1399 101.582C81.546 99.6351 83.2484 98.2373 85.2136 98.2321C87.2257 98.2269 88.9255 99.6507 89.3159 101.668C89.6804 103.553 88.5819 105.492 86.7208 106.255C86.5021 106.343 86.2861 106.442 86.0674 106.538H84.4015L84.4041 106.536Z" fill="#775CFF"/>
<path d="M81.0931 86.7034C80.8822 82.9681 81.9 79.6753 84.719 77.0541C85.7472 76.0962 86.9862 75.4819 88.2148 74.8416C90.568 73.6182 91.9033 71.1636 91.6638 68.5918C91.4139 65.9081 89.584 63.693 86.9993 62.9459C84.5108 62.2275 81.8609 63.0891 80.195 65.1533C79.1955 66.3923 78.8623 67.8421 78.753 69.3987C78.589 71.7154 76.6888 73.3735 74.4268 73.272C72.1778 73.1731 70.452 71.3458 70.4729 69.0135C70.4807 68.1181 70.564 67.2122 70.7279 66.3324C72.0346 59.3486 78.3912 54.2311 85.5364 54.3769C92.7154 54.5252 98.8298 59.8822 99.8372 66.9103C100.759 73.3293 97.7236 79.3135 91.9033 82.2315C90.0812 83.1451 89.1936 84.3607 89.3914 86.3963C89.4747 87.2527 89.4304 88.1273 89.3914 88.9915C89.2925 91.2509 87.512 92.9871 85.3021 93.0183C83.0896 93.0469 81.257 91.3602 81.1035 89.106C81.0488 88.3147 81.0957 87.5156 81.0957 86.7034H81.0931Z" fill="#775CFF"/>
<path d="M27.5391 72.0122C27.5548 74.2872 25.6572 76.1873 23.3744 76.1847C21.1202 76.1847 19.2616 74.3574 19.2278 72.1111C19.1913 69.8126 21.0343 67.915 23.3275 67.8864C25.6129 67.8604 27.5235 69.7319 27.5391 72.0122Z" fill="#775CFF"/>
<path d="M43.157 72.0824C43.1284 74.3626 41.2048 76.2238 38.922 76.1847C36.6287 76.1431 34.7988 74.2377 34.8457 71.9367C34.8925 69.6929 36.7615 67.876 39.0157 67.8864C41.2985 67.8968 43.1857 69.8074 43.157 72.0824Z" fill="#775CFF"/>
<path d="M58.7751 71.9887C58.8037 74.2637 56.9165 76.1717 54.6337 76.1821C52.3795 76.1926 50.5106 74.3757 50.4637 72.1319C50.4169 69.8308 52.2468 67.9255 54.5426 67.8864C56.8254 67.8474 58.7464 69.7085 58.7751 71.9887Z" fill="#775CFF"/>
</svg>
