<svg width="16" height="16" viewBox="0 0 16 16" fill="none" xmlns="http://www.w3.org/2000/svg">
<g clip-path="url(#clip0_1_1653)">
<path d="M0 10.1184C0.0152 6.03203 2.2824 2.89283 5.6752 1.83203C6.89512 1.42734 8.19438 1.32147 9.46373 1.52333C10.7331 1.72519 11.9354 2.22888 12.9696 2.99203C12.9946 3.0027 13.0169 3.01893 13.0347 3.03948C13.0526 3.06004 13.0655 3.08439 13.0725 3.11068C13.0795 3.13698 13.0804 3.16452 13.0752 3.19123C13.07 3.21794 13.0588 3.24311 13.0424 3.26483C12.1624 5.15816 11.288 7.05443 10.4192 8.95363C10.3313 9.20197 10.2609 9.4562 10.2088 9.71443C10.1936 9.77074 10.1568 9.81877 10.1064 9.84803C9.57988 10.0414 9.1481 10.4302 8.9008 10.9336C8.86932 10.9881 8.82064 11.0306 8.7624 11.0544C7.67549 11.4901 6.74399 12.2413 6.088 13.2112C5.79625 13.6639 5.39068 14.0321 4.91192 14.2787C4.43316 14.5254 3.89799 14.642 3.36 14.6168C2.74851 14.5921 2.15778 14.3881 1.66134 14.0303C1.1649 13.6724 0.78468 13.1764 0.568 12.604C0.243907 11.8122 0.0520217 10.9725 0 10.1184M3.6616 5.59683C3.6622 5.96207 3.80658 6.31238 4.06349 6.57199C4.3204 6.83159 4.66919 6.97962 5.0344 6.98403C5.40552 6.98404 5.76155 6.8371 6.02464 6.57536C6.28774 6.31361 6.4365 5.95835 6.4384 5.58723C6.42863 5.22475 6.27747 4.88047 6.01723 4.62796C5.75699 4.37544 5.40831 4.23473 5.0457 4.23588C4.68309 4.23702 4.33531 4.37995 4.07668 4.63411C3.81805 4.88826 3.66908 5.2335 3.6616 5.59603M9.2128 5.76083C9.48761 5.76384 9.75712 5.68519 9.98719 5.53487C10.2173 5.38455 10.3975 5.16931 10.5051 4.91644C10.6127 4.66356 10.6429 4.38443 10.5917 4.11441C10.5405 3.8444 10.4103 3.59566 10.2176 3.39971C10.0249 3.20376 9.77841 3.06942 9.50929 3.01372C9.24017 2.95802 8.96057 2.98346 8.70593 3.08683C8.45129 3.19019 8.23306 3.36682 8.0789 3.59434C7.92475 3.82185 7.8416 4.09001 7.84 4.36483C7.83913 4.73196 7.98316 5.0846 8.24081 5.34615C8.49845 5.60769 8.8489 5.75699 9.216 5.76163M3.3208 10.9808C3.59518 10.9781 3.86259 10.8941 4.08921 10.7394C4.31584 10.5847 4.49149 10.3663 4.59396 10.1117C4.69643 9.85721 4.72112 9.578 4.66489 9.30943C4.60866 9.04086 4.47404 8.795 4.27807 8.60295C4.0821 8.41089 3.83357 8.28127 3.56393 8.23047C3.29428 8.17968 3.01562 8.20999 2.76321 8.31758C2.51079 8.42517 2.29595 8.6052 2.14585 8.8349C1.99576 9.0646 1.91716 9.33365 1.92 9.60803C1.92135 9.79036 1.95874 9.97062 2.03002 10.1384C2.10129 10.3063 2.20504 10.4583 2.3353 10.5859C2.46556 10.7135 2.61975 10.8141 2.78902 10.8818C2.95829 10.9496 3.13928 10.9833 3.3216 10.9808" fill="#775CFF"/>
<path d="M11.8168 10.7712C12.0479 10.9806 12.2102 11.255 12.2824 11.5584C12.3541 11.8344 12.3361 12.1261 12.2312 12.3912C11.9841 12.9985 11.5786 13.5283 11.057 13.9254C10.5353 14.3225 9.9167 14.5723 9.26559 14.6488C9.31759 14.4496 9.37119 14.276 9.40719 14.0984C9.46574 13.7109 9.4489 13.3156 9.35759 12.9344C9.24209 12.4232 9.27569 11.8895 9.45439 11.3968C9.57031 11.0684 9.79896 10.7916 10.0997 10.6159C10.4004 10.4401 10.7537 10.3766 11.0968 10.4368C11.1064 10.4368 11.1168 10.4368 11.0872 10.4368C11.0123 10.2225 10.9543 10.0026 10.9136 9.77923C10.9047 9.62254 10.9367 9.46624 11.0064 9.32563C12.208 6.70963 13.4139 4.09629 14.624 1.48563C14.6529 1.40178 14.6987 1.32473 14.7584 1.25922C14.8182 1.19371 14.8908 1.14111 14.9716 1.10467C15.0525 1.06823 15.14 1.04872 15.2286 1.04732C15.3173 1.04593 15.4053 1.06268 15.4873 1.09656C15.5693 1.13044 15.6434 1.18073 15.7053 1.24433C15.7671 1.30793 15.8152 1.3835 15.8468 1.46639C15.8783 1.54929 15.8925 1.63776 15.8886 1.72636C15.8847 1.81497 15.8627 1.90184 15.824 1.98163C14.8347 4.67816 13.8432 7.37336 12.8496 10.0672C12.7865 10.2629 12.6646 10.4343 12.5006 10.5581C12.3365 10.682 12.1382 10.7522 11.9328 10.7592L11.8176 10.7704" fill="#775CFF"/>
<path d="M13.2176 10.8416C13.5399 10.2222 13.8045 9.57439 14.008 8.90643C14.4184 7.82243 14.812 6.73203 15.2136 5.64483C15.2248 5.61443 15.2384 5.58563 15.2512 5.55603C15.2648 5.55603 15.2792 5.55603 15.2824 5.56483C15.7258 6.23876 15.9749 7.02181 16.0024 7.82803C15.9806 8.53318 15.7211 9.21026 15.2662 9.74945C14.8112 10.2886 14.1874 10.6583 13.496 10.7984C13.4112 10.8136 13.3264 10.8248 13.2208 10.8416" fill="#775CFF"/>
</g>
<defs>
<clipPath id="clip0_1_1653">
<rect width="16" height="16" fill="white"/>
</clipPath>
</defs>
</svg>
