<svg width="14" height="14" viewBox="0 0 14 14" fill="none" xmlns="http://www.w3.org/2000/svg">
<g clip-path="url(#clip0_1_780)">
<path d="M8.23745 7.00025L13.7439 1.49439C14.0857 1.15258 14.0857 0.598401 13.7439 0.256618C13.4021 -0.0851928 12.8479 -0.0851928 12.5061 0.256618L7.00025 5.76305L1.49439 0.256618C1.15258 -0.0851928 0.598401 -0.0851928 0.256618 0.256618C-0.0851654 0.598428 -0.0851928 1.15261 0.256618 1.49439L5.76305 7.00025L0.256618 12.5061C-0.0851928 12.8479 -0.0851928 13.4021 0.256618 13.7439C0.598428 14.0857 1.15261 14.0857 1.49439 13.7439L7.00025 8.23745L12.5061 13.7439C12.8479 14.0857 13.4021 14.0857 13.7439 13.7439C14.0857 13.4021 14.0857 12.8479 13.7439 12.5061L8.23745 7.00025Z" fill="#E1E1E1"/>
</g>
<defs>
<clipPath id="clip0_1_780">
<rect width="13.1522" height="13.1522" fill="white" transform="scale(1.06446)"/>
</clipPath>
</defs>
</svg>
