<svg width="12" height="12" viewBox="0 0 12 12" fill="none" xmlns="http://www.w3.org/2000/svg">
<g clip-path="url(#clip0_1_758)">
<path d="M6 3C5.60444 3 5.21776 3.1173 4.88886 3.33706C4.55996 3.55682 4.30362 3.86918 4.15224 4.23463C4.00087 4.60009 3.96126 5.00222 4.03843 5.39018C4.1156 5.77814 4.30608 6.13451 4.58579 6.41421C4.86549 6.69392 5.22186 6.8844 5.60982 6.96157C5.99778 7.03874 6.39992 6.99914 6.76537 6.84776C7.13082 6.69638 7.44318 6.44004 7.66294 6.11114C7.8827 5.78224 8 5.39556 8 5C8 4.46957 7.78929 3.96086 7.41422 3.58579C7.03914 3.21071 6.53043 3 6 3ZM6 6C5.80222 6 5.60888 5.94135 5.44443 5.83147C5.27998 5.72159 5.15181 5.56541 5.07612 5.38268C5.00043 5.19996 4.98063 4.99889 5.01922 4.80491C5.0578 4.61093 5.15304 4.43275 5.29289 4.29289C5.43275 4.15304 5.61093 4.0578 5.80491 4.01921C5.99889 3.98063 6.19996 4.00043 6.38268 4.07612C6.56541 4.15181 6.72159 4.27998 6.83147 4.44443C6.94135 4.60888 7 4.80222 7 5C7 5.26522 6.89464 5.51957 6.70711 5.70711C6.51957 5.89464 6.26522 6 6 6Z" fill="#9C9C9C"/>
<path d="M5.99991 12C5.57889 12.0022 5.16347 11.9034 4.78845 11.712C4.41342 11.5206 4.08971 11.2422 3.84441 10.9C1.93891 8.2715 0.972412 6.2955 0.972412 5.0265C0.972412 3.69313 1.50209 2.41436 2.44493 1.47152C3.38777 0.528682 4.66654 -0.000999451 5.99991 -0.000999451C7.33329 -0.000999451 8.61205 0.528682 9.55489 1.47152C10.4977 2.41436 11.0274 3.69313 11.0274 5.0265C11.0274 6.2955 10.0609 8.2715 8.15541 10.9C7.91012 11.2422 7.5864 11.5206 7.21138 11.712C6.83636 11.9034 6.42094 12.0022 5.99991 12ZM5.99991 1.0905C4.95612 1.09169 3.95542 1.50686 3.21735 2.24494C2.47928 2.98301 2.0641 3.98371 2.06291 5.0275C2.06291 6.0325 3.00941 7.891 4.72741 10.2605C4.87326 10.4614 5.0646 10.6249 5.28577 10.7376C5.50694 10.8504 5.75166 10.9092 5.99991 10.9092C6.24816 10.9092 6.49288 10.8504 6.71406 10.7376C6.93523 10.6249 7.12657 10.4614 7.27241 10.2605C8.99041 7.891 9.93691 6.0325 9.93691 5.0275C9.93572 3.98371 9.52055 2.98301 8.78248 2.24494C8.0444 1.50686 7.0437 1.09169 5.99991 1.0905Z" fill="#9C9C9C"/>
</g>
<defs>
<clipPath id="clip0_1_758">
<rect width="12" height="12" fill="white"/>
</clipPath>
</defs>
</svg>
