<svg width="50" height="50" viewBox="0 0 50 50" fill="none" xmlns="http://www.w3.org/2000/svg">
<path d="M25 50C21.6125 50 18.4167 48.5125 16.2333 45.9188C13.025 46.2854 9.71875 45.075 7.32292 42.6792C4.92917 40.2833 3.72083 36.9708 4.01042 33.5917C1.4875 31.5833 0 28.3875 0 25C0 21.6125 1.4875 18.4167 4.08333 16.2333C3.71875 13.0312 4.92708 9.71875 7.32292 7.32292C9.71875 4.92708 13.025 3.7125 16.4083 4.01042C18.4167 1.48958 21.6125 0 25 0C28.3875 0 31.5833 1.4875 33.7667 4.08125C36.9792 3.72083 40.2812 4.925 42.6771 7.32083C45.0708 9.71667 46.2792 13.0292 45.9896 16.4083C48.5125 18.4167 50 21.6125 50 25C50 28.3875 48.5125 31.5833 45.9167 33.7667C46.2812 36.9688 45.0729 40.2812 42.6771 42.6771C40.2792 45.0729 36.9667 46.2729 33.5917 45.9896C31.5833 48.5104 28.3875 50 25 50ZM16.4021 41.825C17.5708 41.825 18.6542 42.3271 19.4187 43.2333C20.8104 44.8854 22.8438 45.8333 25 45.8333C27.1562 45.8333 29.1896 44.8854 30.5812 43.2333C31.4208 42.2354 32.6437 41.7313 33.9479 41.8375C36.1021 42.0187 38.2062 41.2542 39.7312 39.7292C41.2542 38.2062 42.0229 36.0979 41.8396 33.9458C41.7271 32.6458 42.2354 31.4187 43.2354 30.5771C44.8854 29.1875 45.8333 27.1521 45.8333 24.9979C45.8333 22.8437 44.8854 20.8083 43.2354 19.4187C42.2375 18.5792 41.7271 17.35 41.8396 16.05C42.0229 13.8979 41.2562 11.7896 39.7312 10.2667C38.2062 8.74375 36.0896 7.9875 33.95 8.15833C32.6458 8.275 31.4208 7.76042 30.5812 6.76458C29.1896 5.1125 27.1562 4.16458 25 4.16458C22.8438 4.16458 20.8104 5.1125 19.4187 6.76458C18.5771 7.7625 17.35 8.2625 16.0521 8.16042C13.8875 7.97292 11.7937 8.74375 10.2687 10.2687C8.74583 11.7917 7.97708 13.9 8.16042 16.0521C8.27292 17.3521 7.76458 18.5792 6.76458 19.4208C5.11458 20.8104 4.16667 22.8458 4.16667 25C4.16667 27.1542 5.11458 29.1896 6.76458 30.5792C7.7625 31.4187 8.27292 32.6479 8.16042 33.9479C7.97708 36.1 8.74375 38.2083 10.2687 39.7312C11.7937 41.2542 13.9208 42.0125 16.05 41.8396C16.1687 41.8292 16.2854 41.825 16.4021 41.825ZM26.6687 31.5312L36.5417 22.0146C37.3688 21.2167 37.3937 19.8958 36.5938 19.0687C35.7958 18.2417 34.4771 18.2167 33.6479 19.0146L23.7479 28.5583C22.9333 29.3729 21.6187 29.3729 20.7479 28.5062L16.0021 24.0958C15.1646 23.3146 13.8438 23.3604 13.0583 24.2042C12.275 25.0458 12.3229 26.3646 13.1667 27.1479L17.8583 31.5062C19.0792 32.7271 20.6854 33.3375 22.2875 33.3375C23.8812 33.3375 25.4667 32.7354 26.6708 31.5333L26.6687 31.5312Z" fill="#755AFF"/>
</svg>
