<svg width="56" height="53" viewBox="0 0 56 53" fill="none" xmlns="http://www.w3.org/2000/svg">
<path d="M6.59283 24.8066V23.766C3.0268 26.1871 0.662385 30.0954 0.119072 34.4662C-0.424187 38.8371 0.908593 43.2352 3.76709 46.5071L2.93369 53.0001L8.3357 50.0273C12.9756 52.3202 18.4415 51.9284 22.7302 48.9949C17.9878 47.1205 13.9064 43.8055 11.0258 39.487C8.14454 35.1691 6.59929 30.0506 6.59294 24.8066L6.59283 24.8066Z" fill="#CBC0FF"/>
<path d="M55.3457 28.7251C54.8538 31.6707 53.8422 34.4972 52.3604 37.0647L54.0182 42.1494L55.685 47.1794L46.162 44.2224C45.417 44.7904 44.6411 45.3126 43.8368 45.7868C43.3015 46.105 42.7508 46.4051 42.1854 46.6867C41.6193 46.9792 41.0438 47.2394 40.4577 47.4692C39.8717 47.6989 39.273 47.9073 38.6621 48.0951C38.1268 48.2566 37.5862 48.4001 37.0408 48.5251C32.7883 49.4707 28.3666 49.2001 24.2525 47.7425L23.7674 47.5707C22.5012 47.0926 21.2772 46.5043 20.1083 45.8108L19.6158 45.5057C19.2923 45.2968 18.9716 45.0828 18.6534 44.864L18.1836 44.5279C17.8702 44.3036 17.5648 44.069 17.2667 43.824L16.8196 43.4562C16.38 43.0807 15.9535 42.6895 15.5392 42.283C15.2665 42.0118 14.9986 41.7351 14.7359 41.4535C14.3422 41.0257 13.9633 40.5848 13.5997 40.1314C13.3572 39.8285 13.1225 39.5208 12.8953 39.2081C12.668 38.8954 12.4482 38.5745 12.2363 38.246C11.9181 37.7658 11.6153 37.2654 11.3273 36.7438C11.1408 36.4044 10.959 36.0579 10.7819 35.7032C9.96912 34.1023 9.33126 32.4123 8.88048 30.6655C8.78431 30.2743 8.69605 29.8781 8.6152 29.4765C8.29284 27.8492 8.13007 26.1931 8.1306 24.532C8.1306 23.9062 8.15333 23.2857 8.19877 22.6702C8.28756 21.4327 8.46776 20.2032 8.73675 18.9935C8.82765 18.5973 8.92595 18.206 9.03217 17.8203L9.19864 17.2413C9.31438 16.8555 9.43856 16.4746 9.56962 16.0992C9.96646 14.9772 10.4421 13.8869 10.9938 12.8371C11.1809 12.4927 11.3727 12.1512 11.5698 11.8123C12.0655 10.9709 12.6088 10.1611 13.198 9.38734C13.4559 9.07958 13.7085 8.77727 13.9558 8.47987C14.1984 8.18302 14.451 7.89327 14.7137 7.6117C14.9763 7.33014 15.2443 7.05347 15.5169 6.78227C19.9332 2.42886 25.8029 0 31.9083 0C38.0137 0 43.8838 2.42886 48.2992 6.78227C48.5718 7.05347 48.8398 7.33014 49.1024 7.6117C49.3402 7.89327 49.5923 8.18248 49.8603 8.47987C50.1282 8.77727 50.3808 9.07958 50.6181 9.38734C51.2073 10.1611 51.7516 10.9709 52.2468 11.8123C52.4492 12.1462 52.641 12.4878 52.8228 12.8371C53.374 13.887 53.8506 14.9773 54.2475 16.0992C54.3786 16.4746 54.5022 16.8555 54.6185 17.2413L54.785 17.8203C54.8912 18.206 54.9895 18.5973 55.0804 18.9935C55.6696 21.6416 55.834 24.3711 55.5655 27.0745C55.51 27.6534 55.4366 28.2034 55.3457 28.7251Z" fill="#775CFF"/>
<path d="M19.8468 28.9592C19.8468 28.9592 15.704 27.4148 15.704 24.599C15.6954 23.4212 16.6883 22.4696 17.9123 22.4696C18.7768 22.4696 19.5301 22.9532 19.8896 23.6552C20.2491 22.9532 21.0023 22.4696 21.8668 22.4696C23.0909 22.4696 24.0837 23.4212 24.0837 24.599C24.0837 27.3992 19.8468 28.9592 19.8468 28.9592Z" fill="white"/>
<path d="M31.3689 28.9592C31.3689 28.9592 27.2261 27.4148 27.2261 24.599C27.2176 23.4212 28.2104 22.4696 29.4345 22.4696C30.299 22.4696 31.0522 22.9532 31.4117 23.6552C31.7712 22.9532 32.5245 22.4696 33.389 22.4696C34.613 22.4696 35.6059 23.4212 35.6059 24.599C35.6059 27.3992 31.3689 28.9592 31.3689 28.9592Z" fill="white"/>
<path d="M42.8911 28.9592C42.8911 28.9592 38.7483 27.4148 38.7483 24.599C38.7398 23.4212 39.7326 22.4696 40.9566 22.4696C41.8211 22.4696 42.5744 22.9532 42.9339 23.6552C43.2934 22.9532 44.0466 22.4696 44.9111 22.4696C46.1352 22.4696 47.128 23.4212 47.128 24.599C47.128 27.3992 42.8911 28.9592 42.8911 28.9592Z" fill="white"/>
</svg>
