<svg width="20" height="19" viewBox="0 0 20 19" fill="none" xmlns="http://www.w3.org/2000/svg">
<path d="M15.9756 0H4.02445C1.80491 0 0 1.80478 0 4.02428V11.3413C0 13.5608 1.80491 15.3656 4.02428 15.3656H7.48767L9.26828 17.9266C9.41459 18.1706 9.70721 18.3169 10 18.3169C10.2927 18.3169 10.5609 18.1705 10.7072 17.9511L12.5122 15.3658H15.9755C18.1951 15.3656 20 13.5609 20 11.3413V4.0243C20 1.80476 18.1951 2.15988e-05 15.9755 2.15988e-05L15.9756 0ZM5.04883 9.51213C4.02445 9.51213 3.21958 8.68291 3.21958 7.68288C3.21958 6.65849 4.02445 5.85362 5.04883 5.85362C6.04887 5.85362 6.87809 6.65849 6.87809 7.68288C6.87809 8.70726 6.07322 9.51213 5.04883 9.51213ZM9.92685 9.51213C8.90247 9.51213 8.0976 8.68291 8.0976 7.68288C8.0976 6.65849 8.90247 5.85362 9.92685 5.85362C10.9269 5.85362 11.7561 6.65849 11.7561 7.68288C11.7561 8.70726 10.9512 9.51213 9.92685 9.51213ZM14.8049 9.4878C13.7805 9.4878 12.9756 8.68293 12.9756 7.65855C12.9756 6.63416 13.8048 5.82929 14.8049 5.82929C15.8049 5.82929 16.6098 6.65851 16.6341 7.65855C16.6341 8.68293 15.8293 9.4878 14.8049 9.4878Z" fill="#E1E1E1"/>
</svg>
