<svg width="33" height="93" viewBox="0 0 33 93" fill="none" xmlns="http://www.w3.org/2000/svg">
<circle cx="16.5" cy="75.5298" r="16.5" fill="#DDD7FF"/>
<path d="M15.881 7.68338C10.9373 5.91598 9.13521 4.12472 9.00742 2.72222C8.94057 1.98659 9.33058 1.35645 9.97191 0.888246C10.6139 0.419734 11.5087 0.113482 12.4501 0.0260897C13.7155 -0.09159 15.0635 0.18237 15.9998 0.981197C16.9363 0.182243 18.2846 -0.0915831 19.5504 0.0260897C20.4916 0.113546 21.3866 0.419734 22.0283 0.888246C22.6695 1.35642 23.0594 1.98669 22.9926 2.72239C22.8649 4.12503 21.062 5.91683 16.1165 7.68424C16.041 7.71125 15.9511 7.7091 15.8809 7.68344L15.881 7.68338ZM13.2883 0.570689C12.7769 0.534701 12.2575 0.587376 11.7851 0.71618C11.3176 0.84351 10.8947 1.04569 10.5695 1.30974C10.4916 1.3728 10.5111 1.46314 10.6132 1.51126C10.7154 1.55937 10.8616 1.54731 10.9395 1.48425C11.216 1.25982 11.5757 1.08791 11.9729 0.979624C12.3713 0.871126 12.8076 0.82656 13.2354 0.85665C13.3631 0.86563 13.4789 0.808867 13.4933 0.729991C13.5079 0.651113 13.416 0.579603 13.2883 0.570689ZM10.23 1.65527L10.1603 1.75231C10.1102 1.82529 10.1653 1.90993 10.2833 1.94089C10.4015 1.97185 10.5386 1.93781 10.5887 1.86489L10.6528 1.77469C10.7061 1.70265 10.6547 1.61727 10.538 1.58436C10.4214 1.55146 10.2831 1.58322 10.2298 1.65526L10.23 1.65527Z" fill="#775CFF"/>
</svg>
