<svg width="40" height="141" viewBox="0 0 40 141" fill="none" xmlns="http://www.w3.org/2000/svg">
<circle cx="20" cy="120.788" r="20" fill="#DDD7FF"/>
<path d="M14.2256 2.89923C14.8361 1.52542 16.7849 0.399786 19.0907 0.0891296C21.3964 -0.221555 23.9568 0.296728 25.4818 1.38278C27.007 2.46882 27.4296 4.0746 26.5369 5.39109C25.4081 7.05562 23.4917 8.52361 21.072 9.57748C20.8778 9.66204 20.6671 9.74693 20.4279 9.75641C20.0949 9.76953 19.8009 9.63525 19.5447 9.50648C17.8937 8.67676 16.3204 7.75806 15.2543 6.63361C14.1883 5.50918 13.6701 4.1496 14.2258 2.89907M20.3195 5.41051C20.6884 5.42407 21.0619 5.38835 21.4057 5.30655C21.8521 5.20038 22.2463 5.01604 22.5277 4.78199C23.1811 4.23834 23.1362 3.42923 22.424 2.91305C21.7118 2.39699 20.3985 2.2218 19.3906 2.50867C18.383 2.79553 17.7745 3.51754 17.9853 4.17639C18.1961 4.83524 19.2069 5.36949 20.3195 5.41041L20.3195 5.41051ZM23.1521 10.3753C23.4701 10.4496 23.7015 10.6426 23.7185 10.8476C23.7355 11.0527 23.5372 11.2585 23.2329 11.3514C22.9849 11.4272 22.6951 11.429 22.4171 11.4292C21.1304 11.4298 19.8436 11.4305 18.557 11.4312C18.2546 11.4313 17.9363 11.4291 17.6741 11.3382C17.2025 11.1747 17.1217 10.719 17.5254 10.4992C17.8418 10.327 18.3114 10.3184 18.738 10.3193C19.9948 10.3217 21.2514 10.324 22.5081 10.3265C22.7259 10.3269 22.9492 10.3279 23.1521 10.3753L23.1521 10.3753Z" fill="#775CFF"/>
</svg>
