<svg width="18" height="18" viewBox="0 0 18 18" fill="none" xmlns="http://www.w3.org/2000/svg">
<g clip-path="url(#clip0_1_944)">
<path d="M17.3394 0.661556C17.0705 0.389402 16.736 0.191198 16.3681 0.0860936C16.0003 -0.0190106 15.6115 -0.0274619 15.2394 0.0615562L3.23944 2.58906C2.54837 2.68383 1.89749 2.96966 1.36009 3.41437C0.822694 3.85907 0.420126 4.44497 0.197722 5.1061C-0.0246816 5.76724 -0.0580863 6.47733 0.10127 7.15642C0.260626 7.83551 0.606413 8.45662 1.09969 8.94981L2.38819 10.2376C2.45793 10.3073 2.51323 10.3901 2.55094 10.4812C2.58865 10.5723 2.60802 10.6699 2.60794 10.7686V13.1446C2.6096 13.4786 2.6865 13.808 2.83294 14.1083L2.82694 14.1136L2.84644 14.1331C3.0662 14.5749 3.42513 14.9322 3.86794 15.1501L3.88744 15.1696L3.89269 15.1636C4.19296 15.31 4.52237 15.3869 4.85644 15.3886H7.23244C7.43123 15.3884 7.62195 15.4672 7.76269 15.6076L9.05044 16.8953C9.39583 17.2445 9.80693 17.5219 10.26 17.7115C10.7131 17.9011 11.1993 17.9992 11.6904 18.0001C12.0998 17.9995 12.5063 17.9327 12.8942 17.8021C13.5493 17.587 14.1312 17.1931 14.5744 16.6648C15.0175 16.1366 15.3042 15.4951 15.4022 14.8126L17.9334 2.78631C18.0271 2.41104 18.0216 2.01787 17.9174 1.64538C17.8133 1.27289 17.6141 0.933859 17.3394 0.661556ZM3.45019 9.17856L2.16094 7.89081C1.86073 7.59783 1.65032 7.22529 1.55441 6.81692C1.45849 6.40856 1.48105 5.9813 1.61944 5.58531C1.75361 5.17905 2.00164 4.81988 2.33404 4.5505C2.66643 4.28113 3.0692 4.1129 3.49444 4.06581L15.3752 1.56456L4.10644 12.8348V10.7686C4.10758 10.4733 4.05016 10.1808 3.93752 9.90785C3.82488 9.63493 3.65924 9.38705 3.45019 9.17856ZM13.9284 14.5561C13.8709 14.9703 13.6989 15.3603 13.432 15.6823C13.1651 16.0043 12.8137 16.2455 12.4173 16.3788C12.0209 16.5122 11.5952 16.5324 11.1879 16.4372C10.7806 16.3421 10.4079 16.1353 10.1117 15.8401L8.82169 14.5501C8.61347 14.3407 8.3658 14.1747 8.09301 14.0617C7.82022 13.9486 7.52772 13.8908 7.23244 13.8916H5.16619L16.4364 2.62506L13.9284 14.5561Z" fill="white"/>
</g>
<defs>
<clipPath id="clip0_1_944">
<rect width="18" height="18" fill="white"/>
</clipPath>
</defs>
</svg>
