<svg width="20" height="21" viewBox="0 0 20 21" fill="none" xmlns="http://www.w3.org/2000/svg">
<path d="M18.9843 1.01745C18.1176 0.150309 16.8868 -0.194149 15.698 0.10693L5.88593 2.56074C4.24372 2.97063 2.9685 4.24582 2.55859 5.88756L0.105598 15.6992C-0.191941 16.8895 0.14796 18.1184 1.01578 18.9855C1.67649 19.6462 2.54702 20.0012 3.45085 20.0012C3.73299 20.0012 4.01898 19.9674 4.3021 19.896L14.1142 17.4421C15.7564 17.0322 17.0315 15.757 17.4415 14.1152L19.8945 4.3036C20.1919 3.11343 19.852 1.88442 18.9843 1.01745V1.01745ZM9.99996 13.8772C7.86296 13.8772 6.12426 12.1386 6.12426 10.0015C6.12426 7.86446 7.86279 6.12576 9.99996 6.12576C12.137 6.12576 13.8757 7.86429 13.8757 10.0015C13.8757 12.1386 12.137 13.8772 9.99996 13.8772Z" fill="#E1E1E1"/>
</svg>
