<svg width="18" height="18" viewBox="0 0 18 18" fill="none" xmlns="http://www.w3.org/2000/svg">
<g clip-path="url(#clip0_1_3448)">
<path d="M16.9164 10.2465L15.4914 5.11951C15.0737 3.61751 14.1659 2.29823 12.9124 1.37136C11.6588 0.444502 10.1314 -0.0367482 8.57296 0.00411186C7.0145 0.0449719 5.51442 0.605597 4.31116 1.59687C3.1079 2.58815 2.27051 3.95319 1.93211 5.47501L0.828858 10.4363C0.706995 10.9845 0.709813 11.553 0.837103 12.1C0.964394 12.647 1.21291 13.1584 1.5643 13.5964C1.91568 14.0345 2.36097 14.388 2.86729 14.631C3.37361 14.8739 3.92803 15 4.48961 15H5.32511C5.49724 15.8477 5.95716 16.6099 6.62692 17.1573C7.29667 17.7047 8.13509 18.0038 9.00011 18.0038C9.86513 18.0038 10.7035 17.7047 11.3733 17.1573C12.0431 16.6099 12.503 15.8477 12.6751 15H13.3036C13.8817 15.0001 14.452 14.8664 14.9699 14.6096C15.4878 14.3527 15.9394 13.9796 16.2892 13.5194C16.6391 13.0592 16.8778 12.5243 16.9867 11.9565C17.0956 11.3888 17.0718 10.8035 16.9171 10.2465H16.9164ZM9.00011 16.5C8.53641 16.4981 8.08464 16.3529 7.70658 16.0844C7.32853 15.8159 7.04267 15.4372 6.88811 15H11.1121C10.9575 15.4372 10.6717 15.8159 10.2936 16.0844C9.91558 16.3529 9.4638 16.4981 9.00011 16.5ZM15.0946 12.6113C14.8856 12.8885 14.6148 13.1132 14.3038 13.2675C13.9928 13.4218 13.6501 13.5014 13.3029 13.5H4.48961C4.1527 13.5 3.8201 13.4242 3.51636 13.2784C3.21263 13.1327 2.94551 12.9205 2.73473 12.6577C2.52395 12.3949 2.37488 12.088 2.29853 11.7599C2.22218 11.4317 2.2205 11.0906 2.29361 10.7618L3.39611 5.79976C3.66187 4.60442 4.31959 3.53221 5.2647 2.7536C6.20981 1.97498 7.38808 1.53464 8.61219 1.50257C9.8363 1.4705 11.036 1.84855 12.0206 2.57661C13.0052 3.30468 13.7181 4.34097 14.0461 5.52076L15.4711 10.6478C15.5653 10.9818 15.5803 11.3332 15.5149 11.674C15.4496 12.0148 15.3056 12.3358 15.0946 12.6113Z" fill="black"/>
</g>
<defs>
<clipPath id="clip0_1_3448">
<rect width="18" height="18" fill="white"/>
</clipPath>
</defs>
</svg>
