<svg width="20" height="22" viewBox="0 0 20 22" fill="none" xmlns="http://www.w3.org/2000/svg">
<path d="M19.6297 18.9163L15.8031 15.0898C17.23 13.49 18.1164 11.3714 18.1164 9.05821C18.1164 4.0643 14.0521 0 9.05821 0C4.0643 0 0 4.0643 0 9.05821C0 14.0521 4.0643 18.1164 9.05821 18.1164C10.831 18.1164 12.474 17.5975 13.8575 16.7328L17.8354 20.7107C18.0732 20.9485 18.3974 21.0782 18.7218 21.0782C19.046 21.0782 19.3704 20.9485 19.6082 20.7107C20.127 20.2135 20.127 19.4135 19.6297 18.9163L19.6297 18.9163ZM2.52934 9.05825C2.52934 5.46952 5.44793 2.52942 9.05817 2.52942C12.6684 2.52942 15.5654 5.46955 15.5654 9.05825C15.5654 12.647 12.6468 15.5871 9.05817 15.5871C5.46955 15.5871 2.52934 12.6685 2.52934 9.05825Z" fill="#B4B4B4"/>
</svg>
