<svg width="16" height="16" viewBox="0 0 16 16" fill="none" xmlns="http://www.w3.org/2000/svg">
<g clip-path="url(#clip0_1_1637)">
<path d="M7.25828 16.0001C7.21572 15.9745 7.17164 15.9515 7.12628 15.9313C5.66334 15.3809 4.19988 14.831 2.73588 14.2817C2.39428 14.1537 2.32068 14.0465 2.32068 13.6777V12.8249C2.43428 12.8153 2.54148 12.8121 2.64708 12.7953C2.96682 12.7631 3.26484 12.6188 3.4883 12.3878C3.71177 12.1569 3.84624 11.8543 3.86788 11.5337C3.91269 11.0301 3.91269 10.5236 3.86788 10.0201C3.84043 9.6648 3.67646 9.33396 3.41037 9.09695C3.14428 8.85995 2.79675 8.7352 2.44068 8.74887H2.31988V8.23447C2.31988 8.06807 2.31988 7.90087 2.31988 7.73447C2.31337 7.6533 2.32827 7.57184 2.36309 7.49823C2.39791 7.42461 2.45142 7.36141 2.51829 7.31494C2.58516 7.26847 2.66306 7.24035 2.74419 7.23339C2.82533 7.22643 2.90687 7.24087 2.98068 7.27527C3.65348 7.52247 4.32308 7.77687 4.99428 8.02807C5.71908 8.29927 6.44228 8.57367 7.16948 8.83927C7.21873 8.84954 7.26215 8.87836 7.29074 8.91976C7.31934 8.96116 7.33091 9.01197 7.32308 9.06167C7.31881 11.3737 7.31881 13.6859 7.32308 15.9985L7.25828 16.0001Z" fill="#775CFF"/>
<path d="M8.25826 16.0001C8.25826 13.6929 8.25826 11.386 8.25826 9.07929C8.25042 9.0253 8.26354 8.97035 8.29493 8.92572C8.32632 8.88109 8.3736 8.85017 8.42706 8.83929C9.80546 8.32809 11.1807 7.80889 12.5575 7.29209C12.6185 7.25946 12.686 7.24043 12.7551 7.23632C12.8242 7.23221 12.8934 7.2431 12.958 7.26826C13.0225 7.29342 13.0808 7.33224 13.1289 7.38206C13.177 7.43188 13.2138 7.49152 13.2367 7.55689C13.2478 7.58036 13.2551 7.60549 13.2583 7.63129C13.2583 8.00009 13.2583 8.36809 13.2583 8.73449C13.1 8.74638 12.9424 8.76668 12.7863 8.79529C12.5076 8.85011 12.2542 8.99354 12.0637 9.20417C11.8733 9.41481 11.756 9.68137 11.7295 9.96409C11.6784 10.508 11.6784 11.0554 11.7295 11.5993C11.7656 11.9374 11.9271 12.2497 12.1821 12.4746C12.4371 12.6996 12.7671 12.8208 13.1071 12.8145C13.1527 12.8145 13.1983 12.8145 13.2567 12.8145C13.2567 13.1801 13.2719 13.5345 13.2511 13.8849C13.2383 14.0985 13.0663 14.2049 12.8743 14.2785C11.95 14.6225 11.0263 14.9692 10.1031 15.3185C9.54893 15.526 8.99506 15.734 8.44146 15.9425C8.40086 15.9608 8.36157 15.982 8.32386 16.0057L8.25826 16.0001Z" fill="#775CFF"/>
<path d="M7.79106 5.31127C7.26525 5.31158 6.75117 5.15581 6.31396 4.8637C5.87675 4.57158 5.53608 4.15627 5.33512 3.67037C5.13416 3.18447 5.08194 2.64985 5.18509 2.13425C5.28824 1.61865 5.54211 1.14527 5.91453 0.774077C6.28696 0.402886 6.76118 0.150592 7.27712 0.0491571C7.79306 -0.0522775 8.3275 0.00171287 8.81273 0.204288C9.29796 0.406863 9.71214 0.748907 10.0028 1.18708C10.2935 1.62526 10.4475 2.13986 10.4455 2.66567C10.4451 3.01375 10.3762 3.35835 10.2426 3.67976C10.109 4.00117 9.91331 4.29308 9.66677 4.5388C9.42024 4.78452 9.12767 4.97922 8.80582 5.11177C8.48397 5.24432 8.13914 5.31211 7.79106 5.31127Z" fill="#775CFF"/>
<path d="M4.14468 6.70482C4.62339 6.27167 5.17768 5.93026 5.77988 5.69762C5.83525 5.68681 5.89264 5.698 5.93989 5.72882C6.49777 6.07137 7.13963 6.2527 7.79428 6.2527C8.44894 6.2527 9.0908 6.07137 9.64868 5.72882C9.69995 5.69762 9.76135 5.68758 9.81988 5.70082C10.4192 5.93604 10.9708 6.27813 11.4479 6.71042L11.0727 6.85202C10.0327 7.24322 8.99268 7.63602 7.95268 8.02082C7.85744 8.05283 7.75433 8.05283 7.65909 8.02082C6.53909 7.60802 5.41908 7.18722 4.29908 6.76802C4.25188 6.75042 4.20708 6.72722 4.14868 6.70082" fill="#775CFF"/>
<path d="M12.6351 10.768C12.6351 10.5656 12.6351 10.3624 12.6351 10.16C12.6332 10.0975 12.6441 10.0352 12.6673 9.97713C12.6905 9.91902 12.7254 9.86631 12.7698 9.82226C12.8142 9.77822 12.8672 9.74378 12.9255 9.7211C12.9838 9.69841 13.0462 9.68797 13.1087 9.69041C13.2959 9.68197 13.4836 9.69269 13.6687 9.72242C13.9332 9.78114 14.1661 9.93703 14.3212 10.1593C14.4763 10.3815 14.5424 10.6538 14.5063 10.9224C14.4719 11.185 14.3438 11.4264 14.1454 11.602C13.9471 11.7775 13.6919 11.8754 13.4271 11.8776C13.3183 11.8776 13.2087 11.8776 13.0999 11.8776C13.0387 11.8779 12.978 11.866 12.9214 11.8426C12.8649 11.8192 12.8135 11.7847 12.7705 11.7412C12.7274 11.6977 12.6935 11.646 12.6706 11.5892C12.6478 11.5324 12.6365 11.4716 12.6375 11.4104C12.6375 11.1976 12.6375 10.984 12.6375 10.7704" fill="#775CFF"/>
<path d="M2.94467 10.7809C2.94467 10.9785 2.94467 11.1761 2.94467 11.3737C2.9503 11.4415 2.94094 11.5096 2.91727 11.5733C2.8936 11.637 2.8562 11.6948 2.80772 11.7424C2.75923 11.7901 2.70086 11.8264 2.63673 11.849C2.57261 11.8716 2.5043 11.8797 2.43667 11.8729C2.26058 11.8799 2.08423 11.8692 1.91027 11.8409C1.64628 11.7813 1.41411 11.6252 1.25941 11.4031C1.10472 11.1811 1.03867 10.9092 1.07427 10.6409C1.10936 10.3785 1.23803 10.1376 1.43662 9.96254C1.63521 9.78747 1.89034 9.69001 2.15507 9.68811H2.43587C2.50486 9.68179 2.57439 9.69087 2.63944 9.71469C2.70449 9.7385 2.76344 9.77646 2.81205 9.82583C2.86065 9.87519 2.89768 9.93473 2.92048 10.0001C2.94327 10.0656 2.95126 10.1352 2.94387 10.2041C2.94387 10.3961 2.94387 10.5889 2.94387 10.7809" fill="#775CFF"/>
</g>
<defs>
<clipPath id="clip0_1_1637">
<rect width="16" height="16" fill="white"/>
</clipPath>
</defs>
</svg>
