<svg width="14" height="14" viewBox="0 0 14 14" fill="none" xmlns="http://www.w3.org/2000/svg">
<path d="M3.54614 13.1251C3.54635 12.8931 3.63867 12.6707 3.80281 12.5067L8.27814 8.03138C8.4136 7.89596 8.52106 7.73518 8.59437 7.55822C8.66768 7.38126 8.70541 7.19159 8.70541 7.00005C8.70541 6.80851 8.66768 6.61884 8.59437 6.44188C8.52106 6.26492 8.4136 6.10414 8.27814 5.96872L3.80864 1.4963C3.64925 1.33127 3.56106 1.11025 3.56305 0.880825C3.56505 0.651402 3.65707 0.431941 3.8193 0.269709C3.98153 0.107477 4.20099 0.0154544 4.43042 0.0134608C4.65984 0.0114672 4.88087 0.0996623 5.04589 0.259051L9.51539 4.72797C10.1164 5.33012 10.4539 6.14611 10.4539 6.99684C10.4539 7.84758 10.1164 8.66356 9.51539 9.26572L5.04006 13.7411C4.91786 13.8633 4.76218 13.9467 4.59267 13.9806C4.42316 14.0144 4.2474 13.9974 4.08759 13.9315C3.92777 13.8656 3.79106 13.7538 3.69469 13.6103C3.59833 13.4668 3.54664 13.2979 3.54614 13.1251Z" fill="black"/>
</svg>
