<svg width="24" height="24" viewBox="0 0 24 24" fill="none" xmlns="http://www.w3.org/2000/svg">
<path d="M3.33325 14C4.43782 14 5.33325 13.1046 5.33325 12C5.33325 10.8954 4.43782 10 3.33325 10C2.22868 10 1.33325 10.8954 1.33325 12C1.33325 13.1046 2.22868 14 3.33325 14Z" fill="black"/>
<path d="M11.3333 14C12.4378 14 13.3333 13.1046 13.3333 12C13.3333 10.8954 12.4378 10 11.3333 10C10.2287 10 9.33325 10.8954 9.33325 12C9.33325 13.1046 10.2287 14 11.3333 14Z" fill="black"/>
<path d="M19.3333 14C20.4378 14 21.3333 13.1046 21.3333 12C21.3333 10.8954 20.4378 10 19.3333 10C18.2287 10 17.3333 10.8954 17.3333 12C17.3333 13.1046 18.2287 14 19.3333 14Z" fill="black"/>
</svg>
