<svg width="18" height="12" viewBox="0 0 18 12" fill="none" xmlns="http://www.w3.org/2000/svg">
<path d="M17.437 4.02679C17.3388 4.05968 15.0005 4.75366 15.0005 6.29237C15.1107 8.04718 17.9513 8.66258 18 8.66258C17.9513 8.69546 17.5712 9.5009 16.4452 10.3452C15.5515 11.0725 14.5597 11.8058 13.0536 11.8058C11.6209 11.8058 11.1066 11.3211 9.45357 11.3211C7.67832 11.3211 7.17601 11.8058 5.81683 11.8058C4.3107 11.8058 3.24539 11.0332 2.30306 10.3128C1.07884 9.36979 0.0382858 7.89002 0.00155101 6.46917C-0.023205 5.71626 0.246716 4.97616 0.931899 4.34752C1.89898 3.4699 3.62552 2.87414 5.51097 2.8545C6.95561 2.82845 8.24132 3.38491 9.12296 3.38491C9.96786 3.38491 11.5475 2.8545 13.3347 2.8545C14.1061 2.85493 16.1633 2.9792 17.437 4.02679ZM9.00078 2.70417C8.74363 2.0166 9.45357 1.32902 10.1148 0.89043C10.9597 0.360015 12.2941 0 13.4449 0C13.5184 0.687574 13.0528 1.36191 12.2207 1.85303C11.474 2.38345 10.1883 2.78275 9.00078 2.70417Z" fill="#1A202C"/>
</svg>
