<svg width="14" height="14" viewBox="0 0 14 14" fill="none" xmlns="http://www.w3.org/2000/svg">
<path d="M6.88102 13.3882C1.93729 10.3085 0.135206 7.18728 0.00741773 4.74344C-0.0594265 3.46161 0.330582 2.3636 0.971911 1.54776C1.61388 0.731381 2.5087 0.197742 3.45008 0.045461C4.71549 -0.159595 6.06345 0.317778 6.9998 1.70973C7.9363 0.317557 9.2846 -0.159583 10.5504 0.045461C11.4916 0.197852 12.3866 0.731381 13.0283 1.54776C13.6695 2.36354 14.0594 3.46179 13.9926 4.74374C13.8649 7.18782 12.062 10.31 7.11648 13.3897C7.04095 13.4368 6.9511 13.433 6.88089 13.3883L6.88102 13.3882ZM4.28826 0.994419C3.77694 0.93171 3.25748 1.0235 2.78511 1.24794C2.31763 1.46981 1.89473 1.82211 1.56951 2.28221C1.4916 2.3921 1.51113 2.54951 1.61325 2.63335C1.71536 2.71719 1.86164 2.69617 1.93955 2.58629C2.21605 2.19521 2.57565 1.89568 2.97294 1.70698C3.3713 1.51793 3.80764 1.44027 4.2354 1.4927C4.36312 1.50835 4.47891 1.40944 4.49334 1.272C4.50788 1.13456 4.41598 1.00995 4.28826 0.994419ZM1.22996 2.88429L1.16029 3.05338C1.11016 3.18055 1.16528 3.32803 1.28335 3.38198C1.40152 3.43593 1.53858 3.37661 1.58871 3.24955L1.65284 3.09238C1.70612 2.96685 1.65468 2.81808 1.53803 2.76073C1.42138 2.7034 1.28313 2.75875 1.22984 2.88428L1.22996 2.88429Z" fill="#775CFF"/>
</svg>
