<svg width="18" height="18" viewBox="0 0 18 18" fill="none" xmlns="http://www.w3.org/2000/svg">
<path d="M15.75 9.318V8.25C15.75 6.45979 15.0389 4.7429 13.773 3.47703C12.5071 2.21116 10.7902 1.5 9.00002 1.5C7.20981 1.5 5.49292 2.21116 4.22705 3.47703C2.96118 4.7429 2.25002 6.45979 2.25002 8.25V9.318C1.46339 9.66438 0.819624 10.2705 0.42649 11.0348C0.033356 11.7991 -0.0852803 12.6753 0.0904422 13.5167C0.266165 14.358 0.72558 15.1135 1.39178 15.6566C2.05797 16.1997 2.89051 16.4974 3.75002 16.5C4.14785 16.5 4.52938 16.342 4.81068 16.0607C5.09199 15.7794 5.25002 15.3978 5.25002 15V10.5C5.25002 10.1022 5.09199 9.72064 4.81068 9.43934C4.52938 9.15804 4.14785 9 3.75002 9V8.25C3.75002 6.85761 4.30315 5.52226 5.28771 4.53769C6.27228 3.55312 7.60764 3 9.00002 3C10.3924 3 11.7278 3.55312 12.7123 4.53769C13.6969 5.52226 14.25 6.85761 14.25 8.25V9C13.8522 9 13.4707 9.15804 13.1894 9.43934C12.9081 9.72064 12.75 10.1022 12.75 10.5V15H10.5C10.3011 15 10.1103 15.079 9.96969 15.2197C9.82904 15.3603 9.75002 15.5511 9.75002 15.75C9.75002 15.9489 9.82904 16.1397 9.96969 16.2803C10.1103 16.421 10.3011 16.5 10.5 16.5H14.25C15.1095 16.4974 15.9421 16.1997 16.6083 15.6566C17.2745 15.1135 17.7339 14.358 17.9096 13.5167C18.0853 12.6753 17.9667 11.7991 17.5736 11.0348C17.1804 10.2705 16.5367 9.66438 15.75 9.318ZM3.75002 15C3.15329 15 2.58099 14.7629 2.15903 14.341C1.73708 13.919 1.50002 13.3467 1.50002 12.75C1.50002 12.1533 1.73708 11.581 2.15903 11.159C2.58099 10.7371 3.15329 10.5 3.75002 10.5V15ZM14.25 15V10.5C14.8468 10.5 15.4191 10.7371 15.841 11.159C16.263 11.581 16.5 12.1533 16.5 12.75C16.5 13.3467 16.263 13.919 15.841 14.341C15.4191 14.7629 14.8468 15 14.25 15Z" fill="black"/>
</svg>
