<svg width="96" height="51" viewBox="0 0 96 51" fill="none" xmlns="http://www.w3.org/2000/svg">
<path d="M11.3649 23.7665V22.7695C5.21765 25.0892 1.14183 28.8336 0.205259 33.0212C-0.731222 37.2089 1.56625 41.4226 6.49378 44.5574L5.05716 50.7781L14.3693 47.9299C22.3677 50.1268 31.7899 49.7513 39.1829 46.9408C31.0077 45.145 23.9722 41.969 19.0064 37.8315C14.0397 33.6946 11.376 28.7907 11.365 23.7665L11.3649 23.7665Z" fill="#A796FF"/>
<path d="M90.2599 35.5109C92.8143 33.0511 94.558 30.343 95.406 27.5209C95.5627 27.0211 95.6893 26.4941 95.7849 25.9395L95.784 25.94C96.2468 23.35 95.9644 20.7344 94.9487 18.1972C94.792 17.8177 94.6225 17.4428 94.4394 17.0732C94.3438 16.8881 94.2481 16.7036 94.1525 16.5185C93.952 16.1489 93.7389 15.784 93.5129 15.4243C92.8288 14.3494 92.0071 13.3048 91.057 12.2989C90.7436 11.9643 90.413 11.637 90.0641 11.3171C89.2105 10.5109 88.2722 9.73514 87.2564 8.99381C86.8474 8.69895 86.412 8.40931 85.9501 8.12438C85.4882 7.83946 85.0537 7.56237 84.6437 7.29261C84.191 7.02285 83.7291 6.75778 83.259 6.49795C75.6477 2.32704 65.5287 0 55.0042 0C44.4796 0 34.3613 2.32704 26.7484 6.49795C26.2783 6.75778 25.8164 7.02285 25.3637 7.29261C24.9109 7.56237 24.4755 7.83998 24.0573 8.12438C23.631 8.40931 23.1955 8.69895 22.751 8.99381C21.7352 9.73515 20.7987 10.511 19.9442 11.3171C19.6045 11.6418 19.2738 11.969 18.9513 12.2989C18.0002 13.3048 17.1803 14.3493 16.4962 15.4243C16.2703 15.784 16.0562 16.1489 15.8567 16.5185C15.7611 16.7036 15.6654 16.8881 15.5698 17.0732C15.3867 17.4428 15.2172 17.8177 15.0605 18.1972C14.5968 19.3563 14.2862 20.5342 14.1331 21.7198C14.0548 22.3096 14.0156 22.904 14.0156 23.5036C14.0147 25.0951 14.2953 26.6817 14.851 28.2408C14.9904 28.6256 15.1425 29.0051 15.3083 29.38C16.0854 31.0535 17.1849 32.6727 18.5861 34.2064C18.8912 34.5463 19.2046 34.8782 19.5262 35.2034C20.0227 35.7032 20.5447 36.1826 21.0931 36.6427C21.4584 36.9574 21.8374 37.2648 22.2291 37.5644C22.6208 37.864 23.0253 38.1588 23.4434 38.449C24.0702 38.8835 24.7233 39.3059 25.402 39.7157C25.8548 39.9855 26.3166 40.2506 26.7867 40.5104C27.5009 40.8999 28.236 41.2747 28.994 41.6344L29.7647 41.9868C30.2785 42.2215 30.805 42.4463 31.3452 42.6612L32.1551 42.9833C32.7035 43.1929 33.2565 43.3979 33.814 43.5981L34.663 43.8903C36.6781 44.5548 38.788 45.1184 40.9706 45.5764L41.8069 45.7411C48.8989 47.1376 56.5211 47.3968 63.8516 46.4908C64.7917 46.3711 65.7237 46.2336 66.6464 46.0789C67.6995 45.899 68.7317 45.6993 69.7418 45.4792C70.7521 45.2591 71.7442 45.0097 72.7199 44.7295C73.6947 44.4597 74.6439 44.1722 75.5667 43.8674C76.9532 43.4131 78.2906 42.9128 79.5749 42.3685L95.9909 45.2016L93.1177 40.3824L90.2599 35.5109ZM35.7889 25.3252C34.7058 25.3252 33.7292 24.9508 33.3157 24.3768C32.9012 23.8028 33.1299 23.1419 33.896 22.7022C34.6612 22.2625 35.8127 22.1313 36.813 22.3692C37.8142 22.6071 38.4664 23.167 38.4664 23.7885C38.4664 24.6371 37.2673 25.3252 35.7889 25.3252ZM54.4511 25.3252C53.368 25.3252 52.3923 24.9508 51.9779 24.3768C51.5635 23.8028 51.7921 23.1419 52.5582 22.7022C53.3234 22.2625 54.4749 22.1313 55.4762 22.3692C56.4764 22.6071 57.1287 23.167 57.1287 23.7885C57.1287 24.6344 55.938 25.3209 54.464 25.325L54.4511 25.3252ZM73.1134 25.3252C72.0302 25.3252 71.0546 24.9508 70.6402 24.3768C70.2257 23.8028 70.4543 23.1419 71.2205 22.7022C71.9857 22.2625 73.1372 22.1313 74.1384 22.3692C75.1387 22.6071 75.7909 23.167 75.7909 23.7885C75.7909 24.6344 74.6002 25.3209 73.1262 25.325L73.1134 25.3252Z" fill="white"/>
<path d="M34.2123 27.7454C34.2123 27.7454 27.0709 26.2657 27.0709 23.568C27.0562 22.4395 28.7677 21.5278 30.8777 21.5278C32.3679 21.5278 33.6664 21.9912 34.2861 22.6637C34.9058 21.9912 36.2043 21.5278 37.6945 21.5278C39.8046 21.5278 41.5161 22.4395 41.5161 23.568C41.5161 26.2508 34.2123 27.7454 34.2123 27.7454Z" fill="#775CFF"/>
<path d="M54.0744 27.7454C54.0744 27.7454 46.933 26.2657 46.933 23.568C46.9182 22.4395 48.6297 21.5278 50.7398 21.5278C52.23 21.5278 53.5285 21.9912 54.1482 22.6637C54.7679 21.9912 56.0664 21.5278 57.5566 21.5278C59.6666 21.5278 61.3781 22.4395 61.3781 23.568C61.3781 26.2508 54.0744 27.7454 54.0744 27.7454Z" fill="#775CFF"/>
<path d="M73.9367 27.7454C73.9367 27.7454 66.7953 26.2657 66.7953 23.568C66.7805 22.4395 68.492 21.5278 70.6021 21.5278C72.0923 21.5278 73.3908 21.9912 74.0105 22.6637C74.6302 21.9912 75.9287 21.5278 77.4189 21.5278C79.5289 21.5278 81.2405 22.4395 81.2405 23.568C81.2405 26.2508 73.9367 27.7454 73.9367 27.7454Z" fill="#775CFF"/>
</svg>
