<svg width="17" height="16" viewBox="0 0 17 16" fill="none" xmlns="http://www.w3.org/2000/svg">
<g clip-path="url(#clip0_1_1664)">
<path d="M0 11.2794C0.0496007 11.0355 0.11279 10.7945 0.189273 10.5576C0.374967 10.005 0.711409 9.51527 1.16064 9.1437C1.60986 8.77213 2.15399 8.53351 2.73163 8.45475C3.36742 8.35561 4.01833 8.45154 4.5985 8.72988C5.17866 9.00822 5.66081 9.45589 5.98135 10.0138C5.98706 10.03 5.99135 10.0467 5.99419 10.0636L5.27238 10.7156C5.11574 10.3592 4.86781 10.0505 4.55363 9.82073C4.23945 9.5909 3.87017 9.44809 3.48311 9.40673C3.19507 9.36725 2.90202 9.38656 2.62165 9.46347C2.34128 9.54039 2.0794 9.67332 1.85183 9.85425C1.40457 10.2217 1.11647 10.7476 1.04763 11.3223C0.978791 11.8971 1.13453 12.4762 1.48236 12.9388C1.83019 13.4015 2.34323 13.712 2.91445 13.8055C3.48568 13.899 4.07095 13.7684 4.54817 13.4408L5.33815 14.0375C5.12697 14.2405 4.88291 14.4062 4.61634 14.5275C4.1599 14.75 3.65716 14.861 3.14946 14.8513C2.64177 14.8416 2.14362 14.7116 1.696 14.4718C1.24837 14.2321 0.864051 13.8895 0.574644 13.4723C0.285236 13.055 0.0990091 12.575 0.0312782 12.0718C0.0234524 12.0366 0.012997 12.002 0 11.9683L0 11.2794Z" fill="#775CFF"/>
<path d="M8.98727 6.68794L7.77785 7.44423C7.84041 7.48353 7.88612 7.51561 7.93825 7.54368C8.43389 7.8316 8.93193 8.11551 9.42517 8.40824C9.53972 8.46602 9.64157 8.54611 9.72472 8.64382C9.80787 8.74153 9.87064 8.85488 9.90935 8.9772C9.94806 9.09952 9.96191 9.22835 9.95011 9.35611C9.9383 9.48386 9.90107 9.60797 9.84061 9.72112C9.78666 9.82217 9.71831 9.91484 9.6377 9.99621C8.64375 11.0319 7.64792 12.0659 6.65023 13.0984C6.56406 13.1993 6.45814 13.2816 6.339 13.3401C6.21985 13.3985 6.09 13.432 5.95743 13.4385C5.82486 13.4449 5.69238 13.4241 5.56814 13.3774C5.44389 13.3308 5.33051 13.2591 5.23498 13.167C5.13944 13.0749 5.06377 12.9642 5.01262 12.8417C4.96147 12.7192 4.93592 12.5876 4.93755 12.4549C4.93917 12.3221 4.96794 12.1912 5.02208 12.07C5.07621 11.9488 5.15457 11.84 5.25233 11.7502C5.87843 11.0995 6.50533 10.4493 7.13304 9.79972L7.31509 9.60884C7.25654 9.56874 7.20762 9.53345 7.15469 9.50137C6.36792 8.9897 5.58517 8.4716 4.79279 7.96874C4.59946 7.85005 4.43561 7.68902 4.31356 7.4978C4.19151 7.30658 4.11445 7.09016 4.0882 6.86483C4.06194 6.6395 4.08717 6.41116 4.16199 6.197C4.2368 5.98284 4.35925 5.78845 4.5201 5.62849C4.66767 5.45961 4.83862 5.3127 5.02777 5.1922C6.14096 4.4843 7.25842 3.78335 8.38016 3.08934C8.6402 2.89868 8.9606 2.80887 9.28186 2.8366C9.60312 2.86433 9.9034 3.00771 10.1269 3.24012C10.4083 3.54673 10.6322 3.90154 10.7878 4.28754C10.8466 4.56083 10.8466 4.84352 10.7878 5.11681C10.7573 5.51782 10.7076 5.9116 10.6603 6.31982C11.2626 6.42007 11.8424 6.51551 12.4247 6.61335C12.6051 6.63798 12.7842 6.67171 12.9612 6.71441C13.1434 6.76808 13.3007 6.88468 13.4049 7.04345C13.5092 7.20221 13.5538 7.39284 13.5306 7.58137C13.5093 7.77293 13.4192 7.95022 13.277 8.08033C13.1348 8.21043 12.9502 8.28449 12.7575 8.28874C12.472 8.26589 12.1883 8.22463 11.9082 8.16523C11.1864 8.04574 10.4598 7.92463 9.73554 7.80273C9.62202 7.79326 9.51168 7.76041 9.41145 7.70625C9.31123 7.65209 9.2233 7.57778 9.15318 7.488C9.08305 7.39822 9.03226 7.2949 9.00398 7.18455C8.97571 7.07419 8.97056 6.95918 8.98888 6.84674C8.99289 6.80263 8.98888 6.75772 8.98888 6.68634" fill="#775CFF"/>
<path d="M12.824 8.41064C13.4608 8.4116 14.0831 8.60134 14.612 8.95588C15.141 9.31043 15.553 9.81385 15.7959 10.4025C16.0387 10.9912 16.1016 11.6386 15.9766 12.263C15.8515 12.8874 15.5442 13.4607 15.0933 13.9104C14.6425 14.3602 14.0684 14.6661 13.4437 14.7896C12.819 14.9131 12.1717 14.8486 11.5836 14.6042C10.9956 14.3599 10.4932 13.9467 10.14 13.4168C9.78675 12.887 9.59855 12.2643 9.59918 11.6275C9.60152 10.7737 9.94228 9.95558 10.5468 9.35258C11.1513 8.74958 11.9702 8.41085 12.824 8.41064ZM10.5784 11.6307C10.5773 12.0751 10.7081 12.5098 10.9542 12.8798C11.2002 13.2498 11.5506 13.5385 11.9608 13.7094C12.371 13.8802 12.8227 13.9255 13.2587 13.8395C13.6947 13.7534 14.0953 13.54 14.4099 13.2262C14.7246 12.9124 14.939 12.5122 15.0261 12.0765C15.1132 11.6407 15.0691 11.1889 14.8993 10.7783C14.7295 10.3676 14.4416 10.0165 14.0722 9.76954C13.7028 9.52254 13.2684 9.3907 12.824 9.39069C12.2294 9.39069 11.6591 9.62651 11.2381 10.0464C10.8172 10.4664 10.5799 11.0361 10.5784 11.6307Z" fill="#775CFF"/>
<path d="M10.6225 2.69157C10.6204 2.26488 10.7879 1.85483 11.0881 1.55161C11.3883 1.24839 11.7967 1.07685 12.2234 1.07473C12.65 1.0726 13.0601 1.24006 13.3633 1.54027C13.6665 1.84048 13.8381 2.24884 13.8402 2.67553C13.8412 2.8868 13.8007 3.09621 13.7208 3.29181C13.6409 3.4874 13.5233 3.66535 13.3747 3.81549C13.226 3.96562 13.0492 4.08501 12.8545 4.16684C12.6597 4.24866 12.4507 4.29132 12.2394 4.29237C11.8127 4.2945 11.4027 4.12704 11.0994 3.82683C10.7962 3.52662 10.6247 3.11826 10.6225 2.69157Z" fill="#775CFF"/>
</g>
<defs>
<clipPath id="clip0_1_1664">
<rect width="16.0401" height="16" fill="white"/>
</clipPath>
</defs>
</svg>
