<svg width="16" height="16" viewBox="0 0 16 16" fill="none" xmlns="http://www.w3.org/2000/svg">
<g clip-path="url(#clip0_1_1629)">
<path d="M8.88763 16C8.86583 15.9875 8.8431 15.9768 8.81963 15.968C8.67677 15.9312 8.54354 15.864 8.42909 15.7709C8.31464 15.6778 8.22166 15.5611 8.15654 15.4287C8.09142 15.2964 8.0557 15.1515 8.05181 15.004C8.04792 14.8565 8.07597 14.71 8.13403 14.5744C8.47856 13.6997 8.82923 12.8274 9.18603 11.9576C9.19995 11.9357 9.20917 11.9112 9.21312 11.8856C9.21706 11.8599 9.21564 11.8338 9.20895 11.8087C9.20226 11.7837 9.19043 11.7603 9.17423 11.7401C9.15803 11.7198 9.1378 11.7032 9.11483 11.6912C8.56603 11.2688 8.02443 10.8368 7.48043 10.4112C7.45243 10.3888 7.42363 10.368 7.38603 10.34C7.35403 10.3888 7.32523 10.4296 7.29963 10.4728C7.0863 10.8306 6.87456 11.1888 6.66443 11.5472C6.57544 11.7138 6.44214 11.8527 6.27923 11.9484C6.11632 12.0441 5.93014 12.093 5.74123 12.0896C4.3503 12.0944 2.95963 12.0944 1.56923 12.0896C1.31873 12.0916 1.07612 12.002 0.886969 11.8378C0.697823 11.6735 0.575162 11.4459 0.542029 11.1976C0.50332 10.9426 0.563038 10.6824 0.709072 10.4698C0.855107 10.2572 1.07653 10.1081 1.32843 10.0528C1.44595 10.0302 1.56565 10.0211 1.68523 10.0256C2.79456 10.0256 3.90416 10.0256 5.01403 10.0256C5.05659 10.0317 5.10001 10.0244 5.13819 10.0046C5.17636 9.98479 5.20736 9.95351 5.22683 9.91517C6.16976 8.26183 7.1151 6.6101 8.06283 4.95996C8.08043 4.92956 8.09403 4.89756 8.11883 4.84956C8.05723 4.84956 8.01323 4.84156 7.96843 4.84156C7.42123 4.84156 6.87483 4.84156 6.32763 4.84156C6.28488 4.83656 6.24166 4.84565 6.20455 4.86746C6.16744 4.88926 6.13847 4.92259 6.12203 4.96237C5.81323 5.5341 5.4999 6.1037 5.18203 6.67116C5.09602 6.83967 4.96366 6.9801 4.80053 7.07591C4.6374 7.17172 4.45029 7.21892 4.26123 7.21197C4.08059 7.21426 3.90283 7.16662 3.74755 7.07429C3.59227 6.98197 3.4655 6.84856 3.38123 6.68876C3.29207 6.54641 3.24248 6.38286 3.23756 6.21497C3.23264 6.04707 3.27257 5.8809 3.35323 5.73357C3.79643 4.90957 4.24523 4.08796 4.70763 3.27436C4.79269 3.12066 4.91868 2.99353 5.07162 2.9071C5.22457 2.82067 5.39847 2.77833 5.57403 2.78477C6.66763 2.78477 7.76203 2.78477 8.85403 2.78477C8.88889 2.7793 8.92458 2.78552 8.95555 2.80245C8.98651 2.81938 9.01101 2.84607 9.02523 2.87837C9.23747 3.32283 9.57055 3.69856 9.98636 3.96256C10.4022 4.22656 10.8839 4.36817 11.3764 4.37117C11.4193 4.37004 11.4616 4.3809 11.4987 4.40253C11.5357 4.42415 11.5659 4.45568 11.586 4.49356C11.8836 4.95756 12.1876 5.41757 12.49 5.87917C12.518 5.92157 12.5492 5.95917 12.5852 6.01437C13.0412 5.76077 13.4876 5.50636 13.9396 5.26316C14.1216 5.15373 14.3168 5.06797 14.5204 5.00796C14.7541 4.95683 14.9984 4.99088 15.2092 5.10398C15.42 5.21707 15.5834 5.40177 15.67 5.62476C15.7586 5.84485 15.7679 6.08886 15.6964 6.31505C15.6249 6.54125 15.477 6.73556 15.278 6.86477C15.0636 7.00157 14.8356 7.11837 14.6132 7.24237C14.018 7.57357 13.4226 7.90423 12.8268 8.23436C12.7062 8.31551 12.5699 8.37055 12.4267 8.39597C12.2836 8.42139 12.1367 8.41662 11.9955 8.38198C11.8543 8.34733 11.7218 8.28358 11.6067 8.19479C11.4916 8.106 11.3962 7.99413 11.3268 7.86636L10.5828 6.73036C10.5556 6.68876 10.526 6.65037 10.4852 6.58957L9.06043 9.02476L10.118 9.85997C10.438 10.1112 10.758 10.3608 11.078 10.6136C11.2825 10.7535 11.4299 10.9622 11.4934 11.2017C11.557 11.4411 11.5325 11.6954 11.4244 11.9184C10.99 12.9928 10.5476 14.0648 10.134 15.1448C10.0747 15.3497 9.96373 15.536 9.81174 15.6858C9.65975 15.8355 9.47184 15.9437 9.26603 16H8.88763Z" fill="#775CFF"/>
<path d="M11.4108 3.0703e-06C11.7507 0.00111753 12.0827 0.103062 12.3646 0.29293C12.6465 0.482798 12.8658 0.752052 12.9946 1.0666C13.1235 1.38116 13.1561 1.72686 13.0883 2.05995C13.0206 2.39304 12.8555 2.69854 12.614 2.93777C12.3726 3.177 12.0655 3.33921 11.7318 3.40385C11.3981 3.46849 11.0527 3.43266 10.7394 3.30091C10.4261 3.16915 10.1589 2.94738 9.97164 2.66368C9.78441 2.37998 9.68557 2.04711 9.68762 1.7072C9.691 1.2527 9.87415 0.818007 10.197 0.498117C10.5199 0.178227 10.9563 -0.000855125 11.4108 3.0703e-06Z" fill="#775CFF"/>
</g>
<defs>
<clipPath id="clip0_1_1629">
<rect width="16" height="16" fill="white"/>
</clipPath>
</defs>
</svg>
